<svg xmlns="http://www.w3.org/2000/svg" width="64" height="64" viewBox="0 0 64 64">
  <defs>
    <linearGradient id="g" x1="0" y1="0" x2="0" y2="1">
      <stop offset="0" stop-color="#f8b133"/>
      <stop offset="1" stop-color="#f59e0b"/>
    </linearGradient>
  </defs>
  <rect width="64" height="64" rx="14.08" fill="url(#g)"/>
  <g transform="translate(9.813333333333333 9.813333333333333) scale(1.848888888888889)">
  <g fill="none" stroke="#1a1205" stroke-width="2"
     stroke-linecap="round" stroke-linejoin="round">
    <path d="M19 7V5a2 2 0 0 0-2-2H5a2 2 0 0 0-2 2v14a2 2 0 0 0 2 2h12a2 2 0 0 0 2-2v-2"/>
    <path d="M21 12a2 2 0 0 0-2-2h-3a2 2 0 0 0 0 4h3a2 2 0 0 0 2-2Z"/>
  </g></g>
</svg>